# AST/ASF file generated using VICON BodyLanguage
# -----------------------------------------------
:version 1.10
:name VICON
:units
  mass 1.0
  length 0.45
  angle deg
:documentation
   .ast/.asf automatically generated from VICON data using
   VICON BodyBuilder and BodyLanguage model FoxedUp or BRILLIANT.MOD
:root
   order TX TY TZ RX RY RZ
   axis XYZ
   position 0 0 0  
   orientation 0 0 0 
:bonedata
  begin
     id 1 
     name lhipjoint
     direction 0.588788 -0.725889 0.355548 
     length 2.37778 
     axis 0 0 0  XYZ
  end
  begin
     id 2 
     name lfemur
     direction 0.34202 -0.939693 0  
     length 6.86393  
     axis 0 0 20  XYZ
    dof rx ry rz
    limits (-160.0 20.0)
           (-70.0 70.0)
           (-60.0 70.0)
  end
  begin
     id 3 
     name ltibia
     direction 0.34202 -0.939693 0   
     length 7.32851   
     axis 0 0 20   XYZ
    dof rx
    limits (-10.0 170.0)
  end
  begin
     id 4 
     name lfoot
     direction 0.0626533 -0.172138 0.983078   
     length 1.98929   
     axis -90 7.62852e-016 20   XYZ
    dof rx rz
    limits (-45.0 90.0)
           (-70.0 20.0)
  end
  begin
     id 5 
     name ltoes
     direction 1.53647e-011 -4.21734e-011 1   
     length 1.00479   
     axis -90 7.62852e-016 20   XYZ
    dof rx
    limits (-90.0 20.0)
  end
  begin
     id 6 
     name rhipjoint
     direction -0.59141 -0.724168 0.354705   
     length 2.38343  
     axis 0 0 0  XYZ 
  end
  begin
     id 7 
     name rfemur
     direction -0.34202 -0.939693 0   
     length 6.95589   
     axis 0 0 -20   XYZ
    dof rx ry rz
    limits (-160.0 20.0)
           (-70.0 70.0)
           (-70.0 60.0)
  end
  begin
     id 8 
     name rtibia
     direction -0.34202 -0.939693 0   
     length 7.32327   
     axis 0 0 -20   XYZ
    dof rx
    limits (-10.0 170.0)
 end
 begin
     id 9 
     name rfoot
     direction -0.0660461 -0.18146 0.981178   
     length 1.85272  
     axis -90 -7.62852e-016 -20   XYZ
    dof rx rz
    limits (-45.0 90.0)
           (-20.0 70.0)
  end
  begin
     id 10 
     name rtoes
     direction -1.53586e-011 -4.21988e-011 1   
     length 0.93746   
     axis -90 -7.62852e-016 -20   XYZ
    dof rx
    limits (-90.0 20.0)
  end
  begin
     id 11 
     name lowerback
     direction -0.0107982 0.991059 0.13299   
     length 1.98691   
     axis 0 0 0   XYZ
    dof rx ry rz
    limits (-20.0 45.0)
           (-30.0 30.0)
           (-30.0 30.0)
  end
  begin
     id 12 
     name upperback
     direction 0.0076296 0.999916 0.0104576   
     length 1.99501   
     axis 0 0 0   XYZ
    dof rx ry rz
    limits (-20.0 45.0)
           (-30.0 30.0)
           (-30.0 30.0)
  end
  begin
     id 13 
     name thorax
     direction 0.01176 0.998615 -0.0512909   
     length 2.03144   
     axis 0 0 0   XYZ
    dof rx ry rz
    limits (-20.0 45.0)
           (-30.0 30.0)
           (-30.0 30.0)
  end
  begin
     id 14 
     name lowerneck
     direction -0.0171909 0.999644 0.0204011   
     length 1.71818   
     axis 0 0 0   XYZ
    dof rx ry rz
    limits (-20.0 45.0)
           (-30.0 30.0)
           (-30.0 30.0)
  end
  begin
     id 15 
     name upperneck
     direction 0.0250902 0.997482 -0.0663316   
     length 1.66199   
     axis 0 0 0   XYZ
    dof rx ry rz
    limits (-20.0 45.0)
           (-30.0 30.0)
           (-30.0 30.0)
  end
  begin
     id 16
     name head
     direction 0.00881535 0.99956 -0.0283365  
     length 1.81545  
     axis 0 0 0   XYZ
    dof rx ry rz
    limits (-20.0 45.0)
           (-30.0 30.0)
           (-30.0 30.0)
  end
  begin
     id 17 
     name lclavicle
     direction 0.840411 0.486876 -0.238035  
     length 3.30409  
     axis 0 0 0   XYZ
    dof ry rz
    limits (-20.0 10.0)
           (0.0 20.0)
  end
  begin
     id 18 
     name lhumerus
     direction 1 -4.48977e-011 -5.16239e-027   
     length 4.62672   
     axis 180 -30 -90   XYZ
    dof rx ry rz
    limits (-60.0 90.0)
           (-90.0 90.0)
           (-90.0 90.0)
  end
  begin
     id 19
     name lradius
     direction 1 -4.48977e-011 -8.71171e-027   
     length 3.11018   
     axis 180 -30 -90   XYZ
    dof rx
    limits (-10.0 170.0)
  end
  begin
     id 20
     name lwrist
     direction 1 -4.48912e-011 -1.03764e-026   
     length 1.55509   
     axis 9.09556e-015 90 90   XYZ
    dof ry
    limits (-180.0 0.0)
 end
  begin
     id 21 
     name lhand
     direction 1 -4.49072e-011 -2.07528e-026   
     length 0.743834   
     axis 1.3242e-014 90 90   XYZ
    dof rx rz
    limits (-90.0 90.0)
           (-45.0 45.0)
  end
  begin
     id 22 
     name lfingers
     direction 1 -4.48909e-011 -4.15056e-026   
     length 0.599698   
     axis 2.64841e-014 90 90   XYZ
    dof rx
    limits (0.0 90.0)
  end
  begin
     id 23
     name lthumb
     direction 0.707107 -6.35013e-011 0.707107   
     length 0.86105   
     axis -90 45 2.85299e-015   XYZ
    dof rx rz
    limits (-45.0 45.0)
           (-45.0 45.0)
  end
  begin
     id 24 
     name rclavicle
     direction -0.835208 0.500237 -0.228452   
     length 3.2716  
     axis 0 0 0   XYZ 
    dof ry rz
    limits (-10.0 20.0)
           (-20.0 0.0)
  end
  begin
     id 25 
     name rhumerus
     direction -1 -4.48978e-011 -5.1953e-028  
     length 4.55919   
     axis 180 30 90   XYZ
    dof rx ry rz
    limits (-90.0 60.0)
           (-90.0 90.0)
           (-90.0 90.0)
  end
  begin
     id 26 
     name rradius
     direction -1 -4.48961e-011 -5.99546e-027   
     length 3.22748   
     axis 180 30 90   XYZ
    dof rx
    limits (-10.0 170.0)
  end
  begin
     id 27 
     name rwrist
     direction -1 -4.48986e-011 -1.03764e-026   
     length 1.61374   
     axis 9.09556e-015 -90 -90   XYZ
    dof ry
    limits (-180.0 0.0)
  end
  begin
     id 28
     name rhand
     direction -1 -4.4899e-011 -2.07528e-026   
     length 0.700882   
     axis 1.3242e-014 -90 -90   XYZ
    dof rx rz
    limits (-90.0 90.0)
           (-45.0 45.0)
  end
  begin
     id 29
     name rfingers
     direction -1 -4.48991e-011 -4.15056e-026   
     length 0.565069   
     axis 2.64841e-014 -90 -90   XYZ
    dof rx
    limits (0.0 90.0)
  end
  begin
     id 30
     name rthumb
     direction -0.707107 -6.34804e-011 0.707107   
     length 0.811329   
     axis -90 -45 -2.85299e-015   XYZ
    dof rx rz
    limits (-45.0 45.0)
           (-45.0 45.0)
  end
:hierarchy
  begin
    root lhipjoint rhipjoint lowerback
    lhipjoint lfemur
    lfemur ltibia
    ltibia lfoot
    lfoot ltoes
    rhipjoint rfemur
    rfemur rtibia
    rtibia rfoot
    rfoot rtoes
    lowerback upperback
    upperback thorax
    thorax lowerneck lclavicle rclavicle
    lowerneck upperneck
    upperneck head
    lclavicle lhumerus
    lhumerus lradius
    lradius lwrist
    lwrist lhand lthumb
    lhand lfingers
    rclavicle rhumerus
    rhumerus rradius
    rradius rwrist
    rwrist rhand rthumb
    rhand rfingers
  end

#!OML:ASF F:\VICON\USERDATA\INSTALL\SteveWalk\SteveWalk.ASF
:FULLY-SPECIFIED
:DEGREES
208
root 0.626194 16.2652 -0.671833 16.7917 6.05939 4.05585
lowerback -13.9446 -3.01812 -4.69014
upperback -4.75765 -3.36114 0.324659
thorax 3.06584 -1.65118 2.42805
lowerneck -5.00933 0.362276 1.38968
upperneck 5.71415 0.523732 -2.21213
head 2.69912 0.217818 -0.931507
rclavicle -2.4817e-015 -9.93923e-016
rhumerus -81.3077 -37.2563 -19.4672
rradius 12.2845
rwrist 40.6211
rhand -13.3894 -36.571
rfingers 7.12502
rthumb 12.7178 -66.1638
lclavicle -2.4817e-015 -9.93923e-016
lhumerus -23.3476 -7.01762 82.1444
lradius 45.4623
lwrist 9.64976
lhand -22.2235 -17.9773
lfingers 7.12502
lthumb 4.19292 11.9612
rfemur -49.2838 -7.74967 20.2302
rtibia 20.7818
rfoot -11.54 0.621306
rtoes -14.0938
lfemur -6.89958 6.56997 -25.6812
ltibia 20.2197
lfoot -24.6461 -15.3535
ltoes -5.17258
209
root 0.622505 16.251 -0.465409 16.9463 6.28347 4.05515
lowerback -14.2038 -3.04171 -4.678
upperback -4.68305 -3.38155 0.425357
thorax 3.29094 -1.66605 2.50974
lowerneck -4.85389 0.350863 1.39296
upperneck 5.32036 0.510641 -2.32625
head 2.5387 0.209677 -0.966489
rclavicle 3.07619e-014 5.96354e-016
rhumerus -80.2018 -36.609 -21.5547
rradius 12.5222
rwrist 38.4133
rhand -12.8664 -37.3958
rfingers 7.12502
rthumb 13.222 -66.9564
lclavicle 3.07619e-014 5.96354e-016
lhumerus -22.6165 -7.06347 82.1938
lradius 46.159
lwrist 9.68784
lhand -22.724 -17.331
lfingers 7.12502
lthumb 3.70963 12.6165
rfemur -49.6061 -8.3312 20.8059
rtibia 19.2837
rfoot -11.85 2.46729
rtoes -11.953
lfemur -5.79454 6.20894 -25.4352
ltibia 19.2447
lfoot -24.0013 -15.3673
ltoes -6.09984
210
root 0.62946 16.2268 -0.258361 17.3362 6.4937 4.28944
lowerback -14.6996 -3.1107 -4.78478
upperback -4.57285 -3.42915 0.476252
thorax 3.68644 -1.69808 2.58965
lowerneck -5.47631 0.375179 1.47269
upperneck 5.58253 0.550654 -2.55646
head 2.74651 0.219166 -1.05737
rclavicle 2.883e-014 7.95139e-015
rhumerus -80.0005 -36.5662 -21.9295
rradius 12.6683
rwrist 37.8799
rhand -11.4931 -37.2984
rfingers 7.12502
rthumb 14.5454 -66.7685
lclavicle 2.883e-014 7.95139e-015
lhumerus -22.0236 -7.00956 82.1822
lradius 47.0252
lwrist 9.83101
lhand -23.3457 -17.4783
lfingers 7.12502
lthumb 3.10928 12.4788
rfemur -50.2574 -9.4223 21.5072
rtibia 18.0084
rfoot -11.7108 4.74137
rtoes -11.0965
lfemur -5.02993 5.6056 -25.5316
ltibia 18.5953
lfoot -23.5426 -15.3388
ltoes -5.57726
211
root 0.633411 16.2011 -0.0500694 17.6786 6.75017 4.26236
lowerback -15.0204 -3.18127 -4.61942
upperback -4.61134 -3.53469 0.599997
thorax 3.82549 -1.75129 2.59382
lowerneck -5.87952 0.388023 1.69037
upperneck 5.87308 0.577441 -2.94133
head 2.92707 0.220203 -1.2242
rclavicle 2.54693e-015 2.78299e-015
rhumerus -79.5723 -36.1165 -22.8092
rradius 12.9346
rwrist 36.5448
rhand -10.6324 -36.8974
rfingers 7.12502
rthumb 15.3746 -66.3057
lclavicle 2.54693e-015 2.78299e-015
lhumerus -21.7866 -6.70281 82.0973
lradius 47.7057
lwrist 9.67628
lhand -23.372 -18.0578
lfingers 7.12502
lthumb 3.08386 11.8997
rfemur -50.7567 -10.473 22.5974
rtibia 16.8584
rfoot -11.6993 6.76985
rtoes -11.1881
lfemur -4.51666 5.10606 -25.3259
ltibia 18.4114
lfoot -23.4417 -15.1223
ltoes -6.50457
212
root 0.628693 16.1736 0.157484 17.7212 6.9436 4.25327
lowerback -14.8961 -3.24176 -4.55641
upperback -4.78305 -3.63868 0.721947
thorax 3.58995 -1.79535 2.67764
lowerneck -5.11502 0.362409 1.93769
upperneck 5.37409 0.553031 -3.43543
head 2.62108 0.204952 -1.42247
rclavicle -2.73826e-014 1.98785e-015
rhumerus -80.131 -35.5858 -22.0099
rradius 12.9187
rwrist 36.6135
rhand -10.8818 -36.062
rfingers 7.12502
rthumb 15.1344 -65.4887
lclavicle -2.73826e-014 1.98785e-015
lhumerus -21.9242 -6.35157 82.1034
lradius 48.35
lwrist 9.38373
lhand -23.2 -18.1394
lfingers 7.12502
lthumb 3.24996 11.8155
rfemur -50.6949 -10.6635 22.9489
rtibia 16.0693
rfoot -11.7392 7.44077
rtoes -12.9223
lfemur -3.79492 4.4338 -25.0642
ltibia 18.4504
lfoot -23.0492 -14.822
ltoes -7.44415
213
root 0.619108 16.1398 0.36547 17.6951 7.04309 4.3087
lowerback -14.6356 -3.28419 -4.61318
upperback -4.88194 -3.7073 0.841112
thorax 3.36242 -1.82348 2.83703
lowerneck -4.67587 0.368892 2.05984
upperneck 4.9348 0.569068 -3.80483
head 2.39845 0.210255 -1.55768
rclavicle 6.05796e-014 9.54166e-015
rhumerus -81.0754 -35.7003 -20.0366
rradius 12.6776
rwrist 37.9229
rhand -10.8481 -36.4281
rfingers 7.12502
rthumb 15.1668 -65.8523
lclavicle 6.05796e-014 9.54166e-015
lhumerus -21.876 -6.05211 82.0941
lradius 49.0144
lwrist 9.30473
lhand -22.7122 -18.1315
lfingers 7.12502
lthumb 3.72098 11.8158
rfemur -50.5451 -10.3256 22.855
rtibia 15.8961
rfoot -12.3526 6.48213
rtoes -21.6637
lfemur -3.00576 3.78123 -24.8731
ltibia 18.4422
lfoot -23.5002 -13.9372
ltoes -11.0645
214
root 0.621055 16.1127 0.58684 17.5813 7.38289 4.23069
lowerback -14.7074 -3.32553 -4.3344
upperback -4.67502 -3.79989 0.950032
thorax 3.61851 -1.87754 2.76796
lowerneck -5.19659 0.441506 2.04359
upperneck 5.0402 0.669941 -3.90113
head 2.53438 0.251627 -1.58662
rclavicle -2.30839e-014 1.90833e-014
rhumerus -81.7979 -36.1685 -18.5397
rradius 12.6005
rwrist 38.9413
rhand -10.5349 -36.7141
rfingers 7.12502
rthumb 15.4685 -66.1152
lclavicle -2.30839e-014 1.90833e-014
lhumerus -21.4372 -5.59754 82.1243
lradius 49.4544
lwrist 9.20599
lhand -22.5353 -17.7784
lfingers 7.12502
lthumb 3.89186 12.1658
rfemur -50.1398 -10.0007 22.6677
rtibia 16.1151
rfoot -13.1307 5.50599
rtoes -25.7654
lfemur -2.18792 2.98861 -24.5068
ltibia 18.5955
lfoot -23.6873 -13.5707
ltoes -13.6886
215
root 0.621251 16.1078 0.830406 17.1478 8.36641 4.12582
lowerback -14.7083 -3.59274 -3.97343
upperback -4.32395 -4.20726 1.08943
thorax 4.01006 -2.0904 2.62332
lowerneck -5.35771 0.527808 1.89952
upperneck 4.76662 0.783671 -3.84465
head 2.47463 0.307266 -1.53634
rclavicle 1.19022e-014 -5.1684e-015
rhumerus -82.2153 -36.5642 -17.5264
rradius 12.5192
rwrist 39.611
rhand -10.5153 -36.4444
rfingers 7.12502
rthumb 15.4874 -65.8441
lclavicle 1.19022e-014 -5.1684e-015
lhumerus -21.2485 -5.0112 82.1469
lradius 49.9625
lwrist 9.14746
lhand -22.4953 -17.8143
lfingers 7.12502
lthumb 3.93052 12.1292
rfemur -48.9238 -9.12319 21.4745
rtibia 16.7773
rfoot -13.3768 3.84168
rtoes -21.7769
lfemur -0.971402 1.94414 -23.8059
ltibia 18.8757
lfoot -22.1568 -14.7831
ltoes -12.7068
216
root 0.628766 16.0876 1.04962 17.2362 7.94804 3.72686
lowerback -14.7031 -3.39965 -3.3259
upperback -4.46964 -4.05522 1.23814
thorax 3.81053 -2.0087 2.44996
lowerneck -5.11673 0.592415 1.87006
upperneck 4.48895 0.873211 -3.95862
head 2.34176 0.352115 -1.56143
rclavicle -8.33653e-015 -3.97569e-015
rhumerus -82.343 -36.4174 -17.0623
rradius 12.5361
rwrist 40.0427
rhand -10.3187 -36.5927
rfingers 7.12502
rthumb 15.6767 -65.9776
lclavicle -8.33653e-015 -3.97569e-015
lhumerus -21.904 -4.46686 82.1503
lradius 50.8436
lwrist 9.22171
lhand -22.4675 -18.0386
lfingers 7.12502
lthumb 3.95733 11.9044
rfemur -48.8558 -8.07269 21.357
rtibia 17.7704
rfoot -12.6263 3.84109
rtoes -20.4719
lfemur -0.521374 1.59415 -23.4357
ltibia 19.3294
lfoot -20.9209 -14.6174
ltoes -14.6872
217
root 0.632983 16.0697 1.28065 17.2823 7.82227 3.45353
lowerback -14.8073 -3.33534 -2.81711
upperback -4.56444 -4.04788 1.38561
thorax 3.74375 -2.00193 2.31819
lowerneck -5.19491 0.701587 1.84788
upperneck 4.62633 1.02855 -4.03245
head 2.40768 0.425096 -1.5775
rclavicle 5.60324e-015 1.35174e-014
rhumerus -82.836 -36.3833 -15.8768
rradius 12.4299
rwrist 40.8639
rhand -10.9273 -35.3542
rfingers 7.12502
rthumb 15.0906 -64.7842
lclavicle 5.60324e-015 1.35174e-014
lhumerus -22.6021 -4.08467 82.1644
lradius 51.6607
lwrist 9.47379
lhand -22.8473 -18.281
lfingers 7.12502
lthumb 3.59056 11.6685
rfemur -48.9337 -7.56392 21.5153
rtibia 19.2708
rfoot -11.742 3.24124
rtoes -27.2666
lfemur 0.135321 1.08828 -23.067
ltibia 19.5171
lfoot -20.2486 -14.4576
ltoes -16.6389
